<?xml version="1.0" encoding="utf-8"?><svg viewBox="0 0 1200 800" xmlns="http://www.w3.org/2000/svg" xmlns:xlink="http://www.w3.org/1999/xlink"><style>:root>svg{display:none}:root>svg:target{display:block}</style><svg viewBox="-74.4 -120.902 644.8 725.41" id="github" xmlns="http://www.w3.org/2000/svg"><path d="M165.9 389.4c0 2-2.3 3.6-5.2 3.6-3.3.3-5.6-1.3-5.6-3.6 0-2 2.3-3.6 5.2-3.6 3-.3 5.6 1.3 5.6 3.6zm-31.1-4.5c-.7 2 1.3 4.3 4.3 4.9 2.6 1 5.6 0 6.2-2 .6-2-1.3-4.3-4.3-5.2-2.6-.7-5.5.3-6.2 2.3zm44.2-1.7c-2.9.7-4.9 2.6-4.6 4.9.3 2 2.9 3.3 5.9 2.6 2.9-.7 4.9-2.6 4.6-4.6-.3-1.9-3-3.2-5.9-2.9zM244.8 0C106.1 0 0 105.3 0 244c0 110.9 69.8 205.8 169.5 239.2 12.8 2.3 17.3-5.6 17.3-12.1 0-6.2-.3-40.4-.3-61.4 0 0-70 15-84.7-29.8 0 0-11.4-29.1-27.8-36.6 0 0-22.9-15.7 1.6-15.4 0 0 24.9 2 38.6 25.8 21.9 38.6 58.6 27.5 72.9 20.9 2.3-16 8.8-27.1 16-33.7-55.9-6.2-112.3-14.3-112.3-110.5 0-27.5 7.6-41.3 23.6-58.9-2.6-6.5-11.1-33.3 2.6-67.9 20.9-6.5 69 27 69 27 20-5.6 41.5-8.5 62.8-8.5 21.3 0 42.8 2.9 62.8 8.5 0 0 48.1-33.6 69-27 13.7 34.7 5.2 61.4 2.6 67.9 16 17.7 25.8 31.5 25.8 58.9 0 96.5-58.9 104.2-114.8 110.5 9.2 7.9 17 22.9 17 46.4 0 33.7-.3 75.4-.3 83.6 0 6.5 4.6 14.4 17.3 12.1C428.2 449.8 496 354.9 496 244 496 105.3 383.5 0 244.8 0zM97.2 344.9c-1.3 1-1 3.3.7 5.2 1.6 1.6 3.9 2.3 5.2 1 1.3-1 1-3.3-.7-5.2-1.6-1.6-3.9-2.3-5.2-1zm-10.8-8.1c-.7 1.3.3 2.9 2.3 3.9 1.6 1 3.6.7 4.3-.7.7-1.3-.3-2.9-2.3-3.9-2-.6-3.6-.3-4.3.7zm32.4 35.6c-1.6 1.3-1 4.3 1.3 6.2 2.3 2.3 5.2 2.6 6.5 1 1.3-1.3.7-4.3-1.3-6.2-2.2-2.3-5.2-2.6-6.5-1zm-11.4-14.7c-1.6 1-1.6 3.6 0 5.9 1.6 2.3 4.3 3.3 5.6 2.3 1.6-1.3 1.6-3.9 0-6.2-1.4-2.3-4-3.3-5.6-2z"/></svg><svg viewBox="0 0 12 12" id="github-invert" xmlns="http://www.w3.org/2000/svg"><path fill="currentColor" d="M6 0a6 6 0 110 12A6 6 0 016 0zm0 .98C3.243.98 1 3.223 1 6a5.02 5.02 0 003.437 4.77.594.594 0 00.045.005c.203.01.279-.129.279-.25l-.007-.854c-1.39.303-1.684-.674-1.684-.674-.227-.58-.555-.734-.555-.734-.454-.312.034-.306.034-.306.365.026.604.288.708.43l.058.088c.446.767 1.17.546 1.455.418.046-.325.174-.546.317-.672-1.11-.127-2.277-.558-2.277-2.482 0-.548.195-.996.515-1.348l-.03-.085c-.064-.203-.152-.658.079-1.244l.04-.007c.124-.016.548-.013 1.335.522A4.77 4.77 0 016 3.408c.425.002.853.058 1.252.17.955-.65 1.374-.516 1.374-.516.272.692.1 1.202.05 1.33.32.35.513.799.513 1.347 0 1.93-1.169 2.354-2.283 2.478.18.155.34.462.34.93l-.006 1.378c0 .13.085.282.323.245A5.02 5.02 0 0011 6C11 3.223 8.757.98 6 .98z"/></svg><svg fill="none" viewBox="0 0 48 48" id="vk" xmlns="http://www.w3.org/2000/svg"><path d="M0 23.04C0 12.179 0 6.748 3.374 3.374 6.748 0 12.18 0 23.04 0h1.92c10.861 0 16.292 0 19.666 3.374C48 6.748 48 12.18 48 23.04v1.92c0 10.861 0 16.292-3.374 19.666C41.252 48 35.82 48 24.96 48h-1.92c-10.861 0-16.292 0-19.666-3.374C0 41.252 0 35.82 0 24.96v-1.92z" fill="#07F"/><path d="M25.54 34.58c-10.94 0-17.18-7.5-17.44-19.98h5.48c.18 9.16 4.22 13.04 7.42 13.84V14.6h5.16v7.9c3.16-.34 6.48-3.94 7.6-7.9h5.16c-.86 4.88-4.46 8.48-7.02 9.96 2.56 1.2 6.66 4.34 8.22 10.02h-5.68c-1.22-3.8-4.26-6.74-8.28-7.14v7.14h-.62z" fill="#fff"/></svg><svg fill="none" viewBox="0 0 48 48" id="vk-invert" xmlns="http://www.w3.org/2000/svg"><path d="M0 23.04C0 12.179 0 6.748 3.374 3.374 6.748 0 12.18 0 23.04 0h1.92c10.861 0 16.292 0 19.666 3.374C48 6.748 48 12.18 48 23.04v1.92c0 10.861 0 16.292-3.374 19.666C41.252 48 35.82 48 24.96 48h-1.92c-10.861 0-16.292 0-19.666-3.374C0 41.252 0 35.82 0 24.96v-1.92z" fill="#000"/><path d="M25.54 34.58c-10.94 0-17.18-7.5-17.44-19.98h5.48c.18 9.16 4.22 13.04 7.42 13.84V14.6h5.16v7.9c3.16-.34 6.48-3.94 7.6-7.9h5.16c-.86 4.88-4.46 8.48-7.02 9.96 2.56 1.2 6.66 4.34 8.22 10.02h-5.68c-1.22-3.8-4.26-6.74-8.28-7.14v7.14h-.62z" fill="#fff"/></svg></svg>